<svg height="590" width="720" xmlns="http://www.w3.org/2000/svg">
<rect height="590" fill="#555" width="720"></rect>
<text fill="#7f7" font-family="Courier New" font-size="12" xml:space="preserve">
<tspan x="10" y="26">2 megabytes installed</tspan>
<tspan x="10" y="42"></tspan>
<tspan x="10" y="58">node_modules</tspan>
<tspan x="10" y="74">└─┬ pkgfiles@2.3.2 </tspan>
<tspan x="10" y="90">  ├─┬ columnify@1.5.4 </tspan>
<tspan x="10" y="106">  │ ├─┬ strip-ansi@3.0.1 </tspan>
<tspan x="10" y="122">  │ │ └── ansi-regex@2.1.1 </tspan>
<tspan x="10" y="138">  │ └─┬ wcwidth@1.0.1 </tspan>
<tspan x="10" y="154">  │   └─┬ defaults@1.0.3 </tspan>
<tspan x="10" y="170">  │     └── clone@1.0.2 </tspan>
<tspan x="10" y="186">  ├─┬ du@0.1.0 </tspan>
<tspan x="10" y="202">  │ └── async@0.1.22 </tspan>
<tspan x="10" y="218">  ├─┬ fstream-npm@1.2.0 </tspan>
<tspan x="10" y="234">  │ ├─┬ fstream-ignore@1.0.5 </tspan>
<tspan x="10" y="250">  │ │ ├─┬ fstream@1.0.11 </tspan>
<tspan x="10" y="266">  │ │ │ ├── graceful-fs@4.1.11 </tspan>
<tspan x="10" y="282">  │ │ │ ├─┬ mkdirp@0.5.1 </tspan>
<tspan x="10" y="298">  │ │ │ │ └── minimist@0.0.8 </tspan>
<tspan x="10" y="314">  │ │ │ └─┬ rimraf@2.6.1 </tspan>
<tspan x="10" y="330">  │ │ │   └─┬ glob@7.1.1 </tspan>
<tspan x="10" y="346">  │ │ │     ├── fs.realpath@1.0.0 </tspan>
<tspan x="10" y="362">  │ │ │     ├── inflight@1.0.6 </tspan>
<tspan x="10" y="378">  │ │ │     ├── once@1.4.0 </tspan>
<tspan x="10" y="394">  │ │ │     └── path-is-absolute@1.0.1 </tspan>
<tspan x="10" y="410">  │ │ └─┬ minimatch@3.0.3 </tspan>
<tspan x="10" y="426">  │ │   └─┬ brace-expansion@1.1.7 </tspan>
<tspan x="10" y="442">  │ │     ├── balanced-match@0.4.2 </tspan>
<tspan x="10" y="458">  │ │     └── concat-map@0.0.1 </tspan>
<tspan x="10" y="474">  │ └── inherits@2.0.3 </tspan>
<tspan x="10" y="490">  ├─┬ map-limit@0.0.1 </tspan>
<tspan x="10" y="506">  │ └─┬ once@1.3.3 </tspan>
<tspan x="10" y="522">  │   └── wrappy@1.0.2 </tspan>
<tspan x="10" y="538">  ├── minimist@1.2.0 </tspan>
<tspan x="10" y="554">  ├── pkgresolve@1.1.4 </tspan>
<tspan x="10" y="570">  └── pretty-bytes@4.0.2</tspan>
</text>
</svg>
